<?xml version="1.0" standalone="no"?>
<!DOCTYPE svg PUBLIC "-//W3C//DTD SVG 20010904//EN"
 "http://www.w3.org/TR/2001/REC-SVG-20010904/DTD/svg10.dtd">
<svg version="1.0" xmlns="http://www.w3.org/2000/svg"
 width="260.000000pt" height="260.000000pt" viewBox="0 0 260.000000 260.000000"
 preserveAspectRatio="xMidYMid meet">
<metadata>
Created by potrace 1.14, written by Peter Selinger 2001-2017
</metadata>
<g transform="translate(0.000000,260.000000) scale(0.100000,-0.100000)"
fill="#000000" stroke="none">
<path d="M518 2590 c-47 -14 -99 -51 -129 -93 l-29 -40 0 -1145 c0 -1130 0
-1145 20 -1177 23 -37 88 -94 137 -119 29 -14 106 -16 788 -16 859 0 792 -7
874 86 75 85 71 21 71 1214 0 1194 5 1118 -73 1206 -23 26 -63 57 -92 70 l-50
24 -745 -1 c-410 0 -757 -4 -772 -9z m1292 -321 c95 -14 222 -51 305 -88 l65
-30 0 -321 0 -320 -272 2 -273 3 0 148 0 148 -31 29 c-86 77 -248 23 -307
-102 -23 -48 -88 -279 -172 -609 -75 -294 -75 -297 -12 -343 43 -32 156 -30
222 4 63 33 143 136 186 240 17 41 44 87 60 103 l29 27 284 0 283 0 -5 -472
c-4 -431 -6 -476 -23 -509 -24 -48 -80 -96 -128 -109 -27 -7 -266 -10 -738 -8
-767 3 -721 0 -787 65 -61 60 -61 57 -64 534 l-3 435 66 250 c87 329 111 407
147 479 104 205 246 324 468 391 77 23 272 54 386 62 127 8 210 6 314 -9z"/>
<path d="M998 283 c6 -2 18 -2 25 0 6 3 1 5 -13 5 -14 0 -19 -2 -12 -5z"/>
</g>
</svg>
